<svg width="39" height="45" viewBox="0 0 39 45" fill="none" xmlns="http://www.w3.org/2000/svg">
<mask id="mask0_33_438" style="mask-type:luminance" maskUnits="userSpaceOnUse" x="0" y="22" width="39" height="23">
<path d="M0 22H38.3698V44.6667H0V22Z" fill="white"/>
</mask>
<g mask="url(#mask0_33_438)">
<path d="M33.3594 22.9115H33.0729C31.1458 22.9115 29.5313 24.2552 29.026 26.1198C27.6458 31.2292 23.0208 34.9948 17.4896 34.9948C15.6354 34.9948 13.875 34.5625 12.3177 33.8021H12.3073V33.8073L15.9219 31.3594C16.9688 30.3125 16.2344 28.5156 14.75 28.5104H2.39062C1.92708 28.5156 1.50521 28.6979 1.20312 29C0.901041 29.2969 0.723959 29.7188 0.71875 30.1823V42.5417C0.723959 44.0261 2.51563 44.7656 3.56771 43.7136L5.98438 40.1458C9.27604 42.3542 13.2344 43.6458 17.4948 43.6458C27.0573 43.6458 35.1094 37.1406 37.4583 28.3073C38.1771 25.5886 36.1771 22.9115 33.3594 22.9115Z" fill="#40494E"/>
</g>
<mask id="mask1_33_438" style="mask-type:luminance" maskUnits="userSpaceOnUse" x="0" y="0" width="39" height="23">
<path d="M0 0H38.2969V22.0677H0V0Z" fill="white"/>
</mask>
<g mask="url(#mask1_33_438)">
<path d="M5.20837 21.8646C7.14066 21.8646 8.75524 20.5209 9.26045 18.6563C10.6355 13.5469 15.2657 9.78128 20.7917 9.78128C22.6459 9.78128 24.4063 10.2188 25.9688 10.974H25.9792V10.9688L22.3646 13.4167C21.3177 14.4636 22.0521 16.2605 23.5365 16.2657H35.8959C36.3594 16.2605 36.7813 16.0782 37.0834 15.7761C37.3802 15.4792 37.5625 15.0573 37.5625 14.5938V2.23441C37.5573 0.750034 35.7657 0.0156595 34.7188 1.06253L32.3021 4.63545C29.0105 2.42191 25.0521 1.13024 20.7917 1.13024C11.224 1.13024 3.17191 7.63545 0.82816 16.4688C0.109409 19.1875 2.10941 21.8646 4.92191 21.8646H5.20837Z" fill="#40494E"/>
</g>
</svg>
